# xmcd
#
# Track frame offsets: 
#        150
#        17299
#        45811
#        60355
#        92775
#        114236
#        139821
#        161237
#        181046
#        197450
#        234730
#        262810
#
# Disc length: 4480 seconds
#
# Revision: 0
# Processed by: cddbd v1.5.2PL0 Copyright (c) Steve Scherf et al.
# Submitted via: ExactAudioCopy v1.3
#
DISCID=87117e0c
DTITLE=Brothers Osborne - Live At The Ryman
DYEAR=2019
DGENRE=Country
TTITLE0=Drank Like Hank
TTITLE1=Shoot Me Straight
TTITLE2=I Don't Remember Me (Before You)
TTITLE3=Weed, Whiskey And Willie
TTITLE4=Down Home
TTITLE5=Rum
TTITLE6=Pushing Up Daisies (Love Alive)
TTITLE7=Tequila Again
TTITLE8=21 Summer
TTITLE9=Love The Lonely Out Of You
TTITLE10=Stay A Little Longer
TTITLE11=It Ain't My Fault
EXTD=
EXTT0=
EXTT1=
EXTT2=
EXTT3=
EXTT4=
EXTT5=
EXTT6=
EXTT7=
EXTT8=
EXTT9=
EXTT10=
EXTT11=
PLAYORDER=
